{
    "asset" : {
        "generator" : "Khronos glTF Blender I/O v3.3.32",
        "version" : "2.0"
    },
    "scene" : 0,
    "scenes" : [
        {
            "name" : "Scene",
            "nodes" : [
                4
            ]
        }
    ],
    "nodes" : [
        {
            "mesh" : 0,
            "name" : "Object_4",
            "rotation" : [
                0.10855426639318466,
                -0.08724401891231537,
                -0.05844877287745476,
                0.988528311252594
            ],
            "translation" : [
                0,
                0.5765745639801025,
                -0.6989539265632629
            ]
        },
        {
            "children" : [
                0
            ],
            "name" : "Plane_0",
            "translation" : [
                0,
                -0.0989009290933609,
                0
            ]
        },
        {
            "children" : [
                1
            ],
            "name" : "GLTF_SceneRootNode",
            "rotation" : [
                0.7071068286895752,
                0,
                0,
                0.7071067094802856
            ]
        },
        {
            "children" : [
                2
            ],
            "name" : "root"
        },
        {
            "children" : [
                3
            ],
            "name" : "Sketchfab_model.001",
            "rotation" : [
                -0.7071068286895752,
                0,
                0,
                0.7071067094802856
            ],
            "scale" : [
                5.727642059326172,
                5.72764253616333,
                5.72764253616333
            ]
        }
    ],
    "materials" : [
        {
            "name" : "Material.001",
            "normalTexture" : {
                "index" : 0,
                "scale" : 0.7738920450210571
            },
            "occlusionTexture" : {
                "index" : 1
            },
            "pbrMetallicRoughness" : {
                "baseColorTexture" : {
                    "index" : 2
                },
                "metallicRoughnessTexture" : {
                    "index" : 1
                }
            }
        }
    ],
    "meshes" : [
        {
            "name" : "Object_0.001",
            "primitives" : [
                {
                    "attributes" : {
                        "POSITION" : 0,
                        "NORMAL" : 1,
                        "TANGENT" : 2,
                        "TEXCOORD_0" : 3,
                        "TEXCOORD_1" : 4,
                        "TEXCOORD_2" : 5,
                        "TEXCOORD_3" : 6
                    },
                    "indices" : 7,
                    "material" : 0
                }
            ]
        }
    ],
    "textures" : [
        {
            "sampler" : 0,
            "source" : 0
        },
        {
            "sampler" : 0,
            "source" : 1
        },
        {
            "sampler" : 0,
            "source" : 2
        }
    ],
    "images" : [
        {
            "mimeType" : "image/png",
            "name" : "Image_2",
            "uri" : "Image_2.png"
        },
        {
            "mimeType" : "image/png",
            "name" : "Image_1",
            "uri" : "Image_1.png"
        },
        {
            "mimeType" : "image/png",
            "name" : "Image_0",
            "uri" : "Image_0.png"
        }
    ],
    "accessors" : [
        {
            "bufferView" : 0,
            "componentType" : 5126,
            "count" : 1962,
            "max" : [
                1,
                0.08755560964345932,
                1
            ],
            "min" : [
                -1,
                0,
                -1
            ],
            "type" : "VEC3"
        },
        {
            "bufferView" : 1,
            "componentType" : 5126,
            "count" : 1962,
            "type" : "VEC3"
        },
        {
            "bufferView" : 2,
            "componentType" : 5126,
            "count" : 1962,
            "type" : "VEC4"
        },
        {
            "bufferView" : 3,
            "componentType" : 5126,
            "count" : 1962,
            "type" : "VEC2"
        },
        {
            "bufferView" : 4,
            "componentType" : 5126,
            "count" : 1962,
            "type" : "VEC2"
        },
        {
            "bufferView" : 5,
            "componentType" : 5126,
            "count" : 1962,
            "type" : "VEC2"
        },
        {
            "bufferView" : 6,
            "componentType" : 5126,
            "count" : 1962,
            "type" : "VEC2"
        },
        {
            "bufferView" : 7,
            "componentType" : 5123,
            "count" : 2034,
            "type" : "SCALAR"
        }
    ],
    "bufferViews" : [
        {
            "buffer" : 0,
            "byteLength" : 23544,
            "byteOffset" : 0,
            "target" : 34962
        },
        {
            "buffer" : 0,
            "byteLength" : 23544,
            "byteOffset" : 23544,
            "target" : 34962
        },
        {
            "buffer" : 0,
            "byteLength" : 31392,
            "byteOffset" : 47088,
            "target" : 34962
        },
        {
            "buffer" : 0,
            "byteLength" : 15696,
            "byteOffset" : 78480,
            "target" : 34962
        },
        {
            "buffer" : 0,
            "byteLength" : 15696,
            "byteOffset" : 94176,
            "target" : 34962
        },
        {
            "buffer" : 0,
            "byteLength" : 15696,
            "byteOffset" : 109872,
            "target" : 34962
        },
        {
            "buffer" : 0,
            "byteLength" : 15696,
            "byteOffset" : 125568,
            "target" : 34962
        },
        {
            "buffer" : 0,
            "byteLength" : 4068,
            "byteOffset" : 141264,
            "target" : 34963
        }
    ],
    "samplers" : [
        {
            "magFilter" : 9729,
            "minFilter" : 9987
        }
    ],
    "buffers" : [
        {
            "byteLength" : 145332,
            "uri" : "metal.bin"
        }
    ]
}
